<?xml version="1.0" standalone="no"?>
<!DOCTYPE svg PUBLIC "-//W3C//DTD SVG 20010904//EN"
 "http://www.w3.org/TR/2001/REC-SVG-20010904/DTD/svg10.dtd">
<svg version="1.0" xmlns="http://www.w3.org/2000/svg"
 width="512.000000pt" height="512.000000pt" viewBox="0 0 512.000000 512.000000"
 preserveAspectRatio="xMidYMid meet">

<g transform="translate(0.000000,512.000000) scale(0.100000,-0.100000)"
fill="#000000" stroke="none">
<path d="M585 4860 c-130 -29 -172 -195 -73 -287 123 -115 327 25 267 184 -28
74 -116 121 -194 103z"/>
<path d="M92 2258 l3 -2003 27 -57 c46 -98 129 -164 236 -187 75 -16 3349 -16
3424 0 107 23 190 89 236 187 l27 57 3 1142 2 1141 -67 7 c-273 25 -460 110
-646 293 -121 118 -207 267 -259 448 -20 69 -23 101 -22 249 0 143 4 183 22
249 43 156 129 312 229 418 l56 58 -1637 0 -1636 0 2 -2002z m528 1442 c44
-44 31 -109 -27 -131 -74 -28 -136 69 -81 128 27 29 80 31 108 3z m2075 14
c23 -9 46 -60 39 -88 -3 -14 -15 -33 -26 -43 -19 -17 -63 -18 -918 -18 l-898
0 -26 24 c-34 32 -34 74 -1 106 l24 25 895 0 c492 0 902 -3 911 -6z m-326
-435 c35 -12 51 -35 51 -74 0 -39 -16 -62 -51 -74 -21 -7 -157 -11 -401 -11
-300 0 -375 3 -403 15 -66 27 -69 105 -4 137 31 16 72 18 405 18 245 0 382 -4
403 -11z m-1752 -14 c46 -32 36 -106 -19 -129 -36 -16 -53 -12 -85 17 -69 62
27 166 104 112z m-23 -425 c81 -30 61 -150 -26 -150 -84 0 -108 107 -33 148
25 14 28 14 59 2z m2114 -13 c11 -10 23 -29 26 -43 7 -28 -16 -79 -39 -88 -9
-3 -419 -6 -911 -6 l-895 0 -24 25 c-42 42 -25 106 35 128 8 3 414 5 901 4
843 -2 888 -3 907 -20z m-2087 -446 c16 -16 29 -37 29 -46 0 -21 -19 -57 -39
-72 -45 -35 -121 7 -121 67 0 39 39 80 75 80 16 0 38 -12 56 -29z m864 7 c35
-30 37 -79 5 -113 l-23 -25 -289 0 -289 0 -24 25 c-39 38 -29 106 18 125 12 5
147 9 299 9 273 1 277 1 303 -21z m1930 -3 c35 -34 34 -86 -1 -114 -26 -20
-38 -21 -298 -21 -291 1 -296 1 -315 53 -13 33 -1 69 31 91 19 14 61 16 291
16 l268 0 24 -25z m-2794 -444 c16 -16 29 -39 29 -51 0 -30 -53 -80 -85 -80
-36 0 -75 41 -75 80 0 39 39 80 75 80 16 0 38 -12 56 -29z m1615 6 c37 -33 37
-81 0 -114 l-27 -23 -650 0 c-551 0 -654 2 -678 15 -48 24 -56 81 -16 120 l24
25 660 0 660 0 27 -23z m-1619 -437 c30 -27 36 -55 21 -87 -38 -80 -148 -55
-148 33 0 63 81 97 127 54z m950 -2 c39 -36 30 -99 -18 -123 -41 -22 -627 -22
-668 0 -46 24 -55 74 -20 119 l20 26 332 0 c326 0 331 0 354 -22z m952 5 c34
-29 37 -74 8 -109 l-25 -29 -349 -3 c-191 -2 -363 0 -381 3 -68 13 -96 84 -50
132 l21 23 378 0 c344 0 379 -2 398 -17z m-1902 -438 c46 -32 36 -106 -19
-129 -36 -16 -53 -12 -85 17 -69 62 27 166 104 112z m2770 -7 c42 -39 26 -106
-31 -128 -40 -15 -1122 -14 -1166 1 -57 20 -71 100 -23 137 13 9 150 12 607
12 l590 0 23 -22z m-2759 -445 c44 -48 6 -123 -61 -123 -82 0 -108 113 -33
146 38 16 64 10 94 -23z"/>
</g>
</svg>
